<svg width="202" height="70" viewBox="0 0 202 70" fill="none" xmlns="http://www.w3.org/2000/svg">
<path d="M64.2008 49.2908V23.6022H69.6478V49.2908H64.2008ZM81.9122 49.6422C79.7217 49.6422 77.9354 48.7871 76.5531 47.0768C75.1826 45.3549 74.4973 42.8306 74.4973 39.5038C74.4973 36.1419 75.1943 33.6 76.5883 31.8781C77.9822 30.1444 79.8037 29.2776 82.0528 29.2776C82.9899 29.2776 83.8157 29.4064 84.5303 29.6641C85.2448 29.9218 85.8598 30.2674 86.3752 30.7008C86.9023 31.1342 87.3475 31.6204 87.7106 32.1592H87.8863C87.816 31.7844 87.7282 31.2338 87.6227 30.5075C87.529 29.7696 87.4822 29.014 87.4822 28.2409V21.9505H92.8589V49.2908H88.7473L87.7106 46.743H87.4822C87.1425 47.2818 86.7149 47.7738 86.1995 48.2189C85.6958 48.6524 85.0925 48.9979 84.3897 49.2556C83.6869 49.5133 82.861 49.6422 81.9122 49.6422ZM83.7923 45.3725C85.2565 45.3725 86.2874 44.9391 86.8848 44.0722C87.4939 43.1937 87.816 41.8759 87.8512 40.1188V39.539C87.8512 37.6296 87.5583 36.1712 86.9726 35.1638C86.3869 34.1447 85.2975 33.6351 83.7045 33.6351C82.5213 33.6351 81.5959 34.1447 80.9283 35.1638C80.2606 36.1829 79.9267 37.653 79.9267 39.5741C79.9267 41.4952 80.2606 42.9418 80.9283 43.9141C81.6077 44.8863 82.5623 45.3725 83.7923 45.3725ZM106.564 29.2776C108.38 29.2776 109.944 29.629 111.256 30.3318C112.567 31.0229 113.581 32.0303 114.295 33.354C115.01 34.6777 115.367 36.2942 115.367 38.2036V40.8041H102.699C102.757 42.3151 103.208 43.5041 104.051 44.3709C104.907 45.226 106.09 45.6536 107.601 45.6536C108.854 45.6536 110.002 45.5248 111.045 45.267C112.087 45.0093 113.159 44.6228 114.26 44.1074V48.2541C113.288 48.7344 112.269 49.0858 111.203 49.3083C110.149 49.5309 108.866 49.6422 107.355 49.6422C105.387 49.6422 103.642 49.2791 102.119 48.5528C100.608 47.8265 99.4186 46.7196 98.5518 45.2319C97.6967 43.7442 97.2691 41.87 97.2691 39.6092C97.2691 37.3133 97.6557 35.4039 98.4288 33.8811C99.2137 32.3466 100.303 31.1987 101.697 30.4373C103.091 29.6641 104.713 29.2776 106.564 29.2776ZM106.599 33.0904C105.557 33.0904 104.69 33.4243 103.999 34.092C103.319 34.7597 102.927 35.8081 102.822 37.2372H110.342C110.33 36.4406 110.184 35.7319 109.903 35.1111C109.633 34.4903 109.223 33.9983 108.673 33.6351C108.134 33.272 107.443 33.0904 106.599 33.0904ZM130.882 29.2776C132.979 29.2776 134.666 29.8516 135.943 30.9995C137.219 32.1358 137.858 33.9631 137.858 36.4816V49.2908H132.499V37.817C132.499 36.4113 132.241 35.3512 131.726 34.6367C131.222 33.9221 130.425 33.5649 129.336 33.5649C127.696 33.5649 126.577 34.1213 125.98 35.2341C125.383 36.3469 125.084 37.9517 125.084 40.0485V49.2908H119.725V29.6466H123.819L124.539 32.1592H124.838C125.26 31.4798 125.781 30.9292 126.402 30.5075C127.034 30.0858 127.731 29.7754 128.493 29.5763C129.266 29.3771 130.062 29.2776 130.882 29.2776ZM151.651 45.3725C152.237 45.3725 152.805 45.3139 153.355 45.1968C153.918 45.0796 154.474 44.9332 155.025 44.7575V48.7461C154.451 49.0038 153.736 49.2146 152.881 49.3786C152.037 49.5543 151.112 49.6422 150.105 49.6422C148.933 49.6422 147.879 49.4548 146.942 49.0799C146.017 48.6934 145.284 48.0315 144.746 47.0944C144.218 46.1456 143.955 44.8278 143.955 43.141V33.6703H141.39V31.4036L144.341 29.6114L145.888 25.4647H149.314V29.6466H154.814V33.6703H149.314V43.141C149.314 43.8907 149.525 44.4529 149.947 44.8278C150.38 45.1909 150.948 45.3725 151.651 45.3725ZM164.372 29.6466V49.2908H159.013V29.6466H164.372ZM161.701 21.9505C162.498 21.9505 163.183 22.138 163.757 22.5128C164.331 22.8759 164.618 23.5612 164.618 24.5686C164.618 25.5643 164.331 26.2554 163.757 26.6419C163.183 27.0168 162.498 27.2042 161.701 27.2042C160.893 27.2042 160.202 27.0168 159.628 26.6419C159.066 26.2554 158.785 25.5643 158.785 24.5686C158.785 23.5612 159.066 22.8759 159.628 22.5128C160.202 22.138 160.893 21.9505 161.701 21.9505ZM180.871 33.6703H176.233V49.2908H170.873V33.6703H167.922V31.0874L170.873 29.6466V28.2058C170.873 26.5307 171.155 25.2304 171.717 24.305C172.291 23.3679 173.093 22.7119 174.124 22.3371C175.167 21.9505 176.397 21.7573 177.814 21.7573C178.856 21.7573 179.805 21.8451 180.66 22.0208C181.516 22.1848 182.212 22.3722 182.751 22.5831L181.381 26.519C180.971 26.3901 180.526 26.273 180.045 26.1675C179.565 26.0621 179.015 26.0094 178.394 26.0094C177.644 26.0094 177.094 26.2378 176.742 26.6947C176.402 27.1398 176.233 27.7138 176.233 28.4166V29.6466H180.871V33.6703ZM181.152 29.6466H187.021L190.728 40.6986C190.846 41.05 190.945 41.4073 191.027 41.7704C191.109 42.1336 191.179 42.5084 191.238 42.895C191.297 43.2815 191.343 43.6857 191.379 44.1074H191.484C191.554 43.4748 191.648 42.8833 191.765 42.3327C191.894 41.7822 192.052 41.2375 192.24 40.6986L195.877 29.6466H201.622L193.311 51.8034C192.808 53.1622 192.152 54.2926 191.343 55.1946C190.535 56.1083 189.604 56.7935 188.55 57.2504C187.507 57.7072 186.359 57.9356 185.106 57.9356C184.497 57.9356 183.97 57.9005 183.524 57.8302C183.079 57.7716 182.699 57.7072 182.382 57.6369V53.3848C182.628 53.4433 182.939 53.4961 183.314 53.5429C183.688 53.5898 184.081 53.6132 184.491 53.6132C185.241 53.6132 185.885 53.4551 186.424 53.1388C186.962 52.8225 187.413 52.395 187.777 51.8561C188.14 51.329 188.427 50.7492 188.638 50.1166L188.954 49.1502L181.152 29.6466Z" fill="#4C0BCE"/>
<path d="M67.5045 57.6792C68.1734 57.6792 68.7467 57.8273 69.2245 58.1235C69.7023 58.4198 70.0678 58.8354 70.321 59.3705C70.5742 59.9009 70.7008 60.522 70.7008 61.2339V61.9721H65.2756C65.29 62.8942 65.5193 63.5965 65.9636 64.0791C66.408 64.5616 67.0339 64.8029 67.8413 64.8029C68.3382 64.8029 68.7778 64.7575 69.16 64.6667C69.5422 64.576 69.9388 64.4422 70.3497 64.2654V65.3117C69.9531 65.4885 69.5589 65.6175 69.1672 65.6987C68.7802 65.78 68.3215 65.8206 67.7911 65.8206C67.0363 65.8206 66.3769 65.6677 65.8131 65.3619C65.2541 65.0514 64.8194 64.5975 64.5088 64.0002C64.1982 63.403 64.043 62.672 64.043 61.8072C64.043 60.9616 64.1839 60.2305 64.4658 59.6142C64.7525 58.9931 65.1538 58.5153 65.6698 58.1809C66.1906 57.8464 66.8021 57.6792 67.5045 57.6792ZM67.4901 58.6539C66.8547 58.6539 66.3482 58.8617 65.9708 59.2774C65.5934 59.693 65.3688 60.2735 65.2971 61.0189H69.4538C69.449 60.5507 69.375 60.1398 69.2317 59.7862C69.0931 59.4279 68.8805 59.1508 68.5938 58.9549C68.3071 58.7542 67.9393 58.6539 67.4901 58.6539ZM80.4547 65.6772H79.0142L75.2374 60.5817L74.1193 61.5851V65.6772H72.901V55.1995H74.1193V60.424C74.3917 60.1135 74.6712 59.8053 74.9579 59.4995C75.2445 59.189 75.5288 58.876 75.8107 58.5607L78.8709 55.1995H80.2971L76.126 59.7432L80.4547 65.6772ZM84.5612 60.4527L87.3491 55.1995H88.6606L85.1704 61.6137V65.6772H83.9521V61.6711L80.4547 55.1995H81.7877L84.5612 60.4527ZM94.5803 56.124C94.0022 56.124 93.4814 56.2244 93.018 56.425C92.5593 56.6209 92.1675 56.9076 91.8426 57.285C91.5225 57.6577 91.2765 58.1092 91.1044 58.6395C90.9324 59.1699 90.8464 59.7671 90.8464 60.4312C90.8464 61.3103 90.9826 62.0748 91.255 62.7246C91.5321 63.3696 91.943 63.8688 92.4876 64.2224C93.0371 64.576 93.7227 64.7527 94.5445 64.7527C95.0127 64.7527 95.4523 64.7145 95.8631 64.6381C96.2788 64.5569 96.6825 64.4565 97.0743 64.3371V65.3977C96.6921 65.5411 96.2908 65.6462 95.8703 65.7131C95.4499 65.7847 94.9506 65.8206 94.3725 65.8206C93.307 65.8206 92.416 65.6008 91.6993 65.1612C90.9874 64.7169 90.4523 64.091 90.0939 63.2836C89.7404 62.4761 89.5636 61.5229 89.5636 60.424C89.5636 59.6309 89.6735 58.9071 89.8933 58.2525C90.1178 57.5932 90.4427 57.0246 90.8679 56.5469C91.298 56.0691 91.8235 55.7012 92.4446 55.4432C93.0705 55.1804 93.7872 55.049 94.5946 55.049C95.125 55.049 95.6362 55.1016 96.1283 55.2067C96.6204 55.3118 97.0648 55.4623 97.4613 55.6582L96.974 56.6902C96.6395 56.5373 96.2716 56.4059 95.8703 56.296C95.4738 56.1814 95.0438 56.124 94.5803 56.124ZM108.061 63.5272C108.061 64.0289 107.934 64.4517 107.681 64.7957C107.433 65.135 107.074 65.3906 106.606 65.5626C106.143 65.7346 105.588 65.8206 104.943 65.8206C104.394 65.8206 103.919 65.7776 103.517 65.6916C103.116 65.6056 102.765 65.4837 102.464 65.3261V64.2296C102.784 64.3872 103.166 64.5306 103.61 64.6596C104.055 64.7886 104.509 64.8531 104.972 64.8531C105.65 64.8531 106.143 64.7432 106.448 64.5234C106.754 64.3036 106.907 64.005 106.907 63.6276C106.907 63.4126 106.845 63.2238 106.721 63.0614C106.601 62.8942 106.398 62.7341 106.112 62.5812C105.825 62.4236 105.428 62.2516 104.922 62.0652C104.42 61.8741 103.985 61.6854 103.618 61.4991C103.254 61.3079 102.973 61.0762 102.772 60.8039C102.576 60.5315 102.478 60.178 102.478 59.7432C102.478 59.0791 102.746 58.5703 103.281 58.2167C103.821 57.8584 104.528 57.6792 105.402 57.6792C105.875 57.6792 106.317 57.727 106.728 57.8225C107.144 57.9133 107.531 58.0375 107.889 58.1952L107.488 59.1484C107.163 59.0098 106.816 58.8928 106.448 58.7972C106.08 58.7016 105.705 58.6539 105.323 58.6539C104.774 58.6539 104.351 58.7446 104.055 58.9262C103.763 59.1078 103.618 59.3562 103.618 59.6715C103.618 59.9152 103.684 60.1159 103.818 60.2735C103.957 60.4312 104.177 60.5793 104.478 60.7179C104.779 60.8564 105.175 61.0189 105.667 61.2052C106.159 61.3868 106.585 61.5755 106.943 61.7714C107.301 61.9625 107.576 62.1966 107.767 62.4737C107.963 62.7461 108.061 63.0972 108.061 63.5272ZM116.747 61.7356C116.747 62.3806 116.663 62.9563 116.496 63.4627C116.329 63.9692 116.088 64.3968 115.772 64.7456C115.457 65.0944 115.075 65.3619 114.626 65.5482C114.181 65.7298 113.677 65.8206 113.113 65.8206C112.588 65.8206 112.105 65.7298 111.666 65.5482C111.231 65.3619 110.854 65.0944 110.533 64.7456C110.218 64.3968 109.972 63.9692 109.795 63.4627C109.623 62.9563 109.537 62.3806 109.537 61.7356C109.537 60.8756 109.683 60.1445 109.974 59.5425C110.266 58.9358 110.682 58.4747 111.221 58.1594C111.766 57.8393 112.413 57.6792 113.164 57.6792C113.88 57.6792 114.506 57.8393 115.041 58.1594C115.581 58.4795 115.999 58.9429 116.295 59.5497C116.596 60.1517 116.747 60.8803 116.747 61.7356ZM110.77 61.7356C110.77 62.3662 110.854 62.9133 111.021 63.3767C111.188 63.8402 111.446 64.1985 111.795 64.4517C112.144 64.705 112.593 64.8316 113.142 64.8316C113.687 64.8316 114.133 64.705 114.482 64.4517C114.836 64.1985 115.096 63.8402 115.263 63.3767C115.431 62.9133 115.514 62.3662 115.514 61.7356C115.514 61.1097 115.431 60.5698 115.263 60.1159C115.096 59.6572 114.838 59.3037 114.489 59.0552C114.141 58.8068 113.689 58.6825 113.135 58.6825C112.318 58.6825 111.718 58.9525 111.336 59.4924C110.959 60.0323 110.77 60.78 110.77 61.7356ZM120.001 65.6772H118.804V54.5258H120.001V65.6772ZM129.002 57.8225V65.6772H128.027L127.855 64.5736H127.791C127.628 64.8459 127.418 65.0752 127.16 65.2616C126.902 65.4479 126.611 65.5865 126.286 65.6772C125.966 65.7728 125.624 65.8206 125.261 65.8206C124.64 65.8206 124.119 65.7202 123.699 65.5196C123.278 65.3189 122.96 65.0084 122.745 64.5879C122.535 64.1675 122.43 63.6276 122.43 62.9682V57.8225H123.634V62.8822C123.634 63.5368 123.782 64.0265 124.078 64.3514C124.375 64.6715 124.826 64.8316 125.433 64.8316C126.016 64.8316 126.479 64.7217 126.823 64.5019C127.172 64.2821 127.423 63.9596 127.576 63.5344C127.729 63.1044 127.805 62.5788 127.805 61.9577V57.8225H129.002ZM134.055 64.8459C134.25 64.8459 134.451 64.8292 134.657 64.7957C134.862 64.7623 135.029 64.7217 135.158 64.6739V65.5984C135.02 65.6605 134.826 65.7131 134.578 65.7561C134.334 65.7991 134.095 65.8206 133.861 65.8206C133.445 65.8206 133.068 65.7489 132.729 65.6056C132.389 65.4575 132.117 65.209 131.912 64.8602C131.711 64.5115 131.611 64.0289 131.611 63.4126V58.7542H130.493V58.1737L131.618 57.7079L132.091 56.0022H132.808V57.8225H135.108V58.7542H132.808V63.3767C132.808 63.8688 132.92 64.2367 133.144 64.4804C133.374 64.7241 133.677 64.8459 134.055 64.8459ZM137.939 57.8225V65.6772H136.749V57.8225H137.939ZM137.358 54.8842C137.554 54.8842 137.721 54.9487 137.86 55.0777C138.003 55.2019 138.075 55.3978 138.075 55.6654C138.075 55.9281 138.003 56.124 137.86 56.253C137.721 56.382 137.554 56.4465 137.358 56.4465C137.153 56.4465 136.981 56.382 136.842 56.253C136.709 56.124 136.642 55.9281 136.642 55.6654C136.642 55.3978 136.709 55.2019 136.842 55.0777C136.981 54.9487 137.153 54.8842 137.358 54.8842ZM147.234 61.7356C147.234 62.3806 147.15 62.9563 146.983 63.4627C146.816 63.9692 146.575 64.3968 146.259 64.7456C145.944 65.0944 145.562 65.3619 145.113 65.5482C144.668 65.7298 144.164 65.8206 143.601 65.8206C143.075 65.8206 142.592 65.7298 142.153 65.5482C141.718 65.3619 141.341 65.0944 141.021 64.7456C140.705 64.3968 140.459 63.9692 140.282 63.4627C140.11 62.9563 140.024 62.3806 140.024 61.7356C140.024 60.8756 140.17 60.1445 140.462 59.5425C140.753 58.9358 141.169 58.4747 141.709 58.1594C142.253 57.8393 142.901 57.6792 143.651 57.6792C144.367 57.6792 144.993 57.8393 145.528 58.1594C146.068 58.4795 146.486 58.9429 146.783 59.5497C147.084 60.1517 147.234 60.8803 147.234 61.7356ZM141.257 61.7356C141.257 62.3662 141.341 62.9133 141.508 63.3767C141.675 63.8402 141.933 64.1985 142.282 64.4517C142.631 64.705 143.08 64.8316 143.629 64.8316C144.174 64.8316 144.621 64.705 144.969 64.4517C145.323 64.1985 145.583 63.8402 145.751 63.3767C145.918 62.9133 146.001 62.3662 146.001 61.7356C146.001 61.1097 145.918 60.5698 145.751 60.1159C145.583 59.6572 145.325 59.3037 144.977 59.0552C144.628 58.8068 144.176 58.6825 143.622 58.6825C142.805 58.6825 142.205 58.9525 141.823 59.4924C141.446 60.0323 141.257 60.78 141.257 61.7356ZM153.01 57.6792C153.942 57.6792 154.647 57.9085 155.125 58.3672C155.602 58.8211 155.841 59.5521 155.841 60.5602V65.6772H154.666V60.639C154.666 59.9845 154.515 59.4948 154.214 59.1699C153.918 58.845 153.462 58.6825 152.846 58.6825C151.976 58.6825 151.365 58.9286 151.011 59.4207C150.657 59.9128 150.481 60.6271 150.481 61.5636V65.6772H149.291V57.8225H150.251L150.43 58.9549H150.495C150.662 58.6778 150.875 58.446 151.133 58.2597C151.391 58.0686 151.68 57.9253 152 57.8297C152.32 57.7294 152.657 57.6792 153.01 57.6792ZM163.374 63.5272C163.374 64.0289 163.247 64.4517 162.994 64.7957C162.745 65.135 162.387 65.3906 161.919 65.5626C161.455 65.7346 160.901 65.8206 160.256 65.8206C159.707 65.8206 159.231 65.7776 158.83 65.6916C158.429 65.6056 158.077 65.4837 157.776 65.3261V64.2296C158.096 64.3872 158.479 64.5306 158.923 64.6596C159.367 64.7886 159.821 64.8531 160.285 64.8531C160.963 64.8531 161.455 64.7432 161.761 64.5234C162.067 64.3036 162.22 64.005 162.22 63.6276C162.22 63.4126 162.158 63.2238 162.033 63.0614C161.914 62.8942 161.711 62.7341 161.424 62.5812C161.138 62.4236 160.741 62.2516 160.235 62.0652C159.733 61.8741 159.298 61.6854 158.93 61.4991C158.567 61.3079 158.285 61.0762 158.085 60.8039C157.889 60.5315 157.791 60.178 157.791 59.7432C157.791 59.0791 158.058 58.5703 158.593 58.2167C159.133 57.8584 159.84 57.6792 160.715 57.6792C161.188 57.6792 161.63 57.727 162.041 57.8225C162.456 57.9133 162.843 58.0375 163.202 58.1952L162.8 59.1484C162.475 59.0098 162.129 58.8928 161.761 58.7972C161.393 58.7016 161.018 58.6539 160.636 58.6539C160.086 58.6539 159.664 58.7446 159.367 58.9262C159.076 59.1078 158.93 59.3562 158.93 59.6715C158.93 59.9152 158.997 60.1159 159.131 60.2735C159.269 60.4312 159.489 60.5793 159.79 60.7179C160.091 60.8564 160.488 61.0189 160.98 61.2052C161.472 61.3868 161.897 61.5755 162.256 61.7714C162.614 61.9625 162.889 62.1966 163.08 62.4737C163.276 62.7461 163.374 63.0972 163.374 63.5272Z" fill="#4E4E4E"/>
<path d="M58.3333 57.1374V23.3333L40.8333 5.83325H17.5C14.2916 5.83325 11.6958 8.45825 11.6958 11.6666L11.6666 58.3333C11.6666 61.5416 14.2625 64.1666 17.4708 64.1666H52.5C53.8125 64.1666 54.9791 63.7291 55.9708 62.9999L43.05 50.0791C40.7166 51.5958 37.975 52.4999 35 52.4999C26.95 52.4999 20.4166 45.9666 20.4166 37.9166C20.4166 29.8666 26.95 23.3333 35 23.3333C43.05 23.3333 49.5833 29.8666 49.5833 37.9166C49.5833 40.8916 48.6791 43.6333 47.1625 45.9374L58.3333 57.1374ZM26.25 37.9166C26.25 42.7583 30.1583 46.6666 35 46.6666C39.8416 46.6666 43.75 42.7583 43.75 37.9166C43.75 33.0749 39.8416 29.1666 35 29.1666C30.1583 29.1666 26.25 33.0749 26.25 37.9166Z" fill="#4C0BCE"/>
</svg>
